<?xml version="1.0" standalone="no"?>
<!DOCTYPE svg PUBLIC "-//W3C//DTD SVG 20010904//EN"
 "http://www.w3.org/TR/2001/REC-SVG-20010904/DTD/svg10.dtd">
<svg version="1.0" xmlns="http://www.w3.org/2000/svg"
 width="512.000000pt" height="512.000000pt" viewBox="0 0 512.000000 512.000000"
 preserveAspectRatio="xMidYMid meet">

<g transform="translate(0.000000,512.000000) scale(0.100000,-0.100000)"
fill="#000000" stroke="none">
<path d="M78 5099 c-23 -12 -46 -35 -58 -59 -20 -39 -20 -56 -20 -1568 0
-1682 -4 -1581 61 -1703 75 -141 252 -248 409 -249 50 0 116 -26 142 -56 43
-49 48 -83 48 -323 0 -129 5 -253 11 -283 39 -187 200 -348 387 -387 243 -51
486 87 574 326 20 52 23 84 27 323 6 257 7 266 30 303 13 21 42 50 64 65 34
23 52 27 107 27 55 0 73 -4 107 -27 22 -15 51 -44 64 -65 l24 -38 5 -495 c5
-479 6 -497 27 -553 90 -240 332 -377 575 -326 166 35 308 159 371 326 21 56
22 74 27 553 l5 495 24 38 c13 21 42 50 64 65 34 23 52 27 107 27 55 0 73 -4
107 -27 69 -45 85 -83 93 -216 12 -179 56 -281 166 -382 198 -180 494 -172
685 19 104 105 149 219 149 382 0 81 15 135 48 173 26 30 92 56 142 56 213 1
419 176 460 389 6 35 10 581 10 1573 0 1502 0 1519 -20 1558 -13 26 -34 47
-60 60 -39 20 -53 20 -2482 20 -2413 -1 -2443 -1 -2480 -21z m1045 -474 c190
-40 283 -129 225 -215 -38 -56 -73 -60 -166 -17 -98 46 -159 54 -243 33 -130
-33 -221 -125 -255 -255 -54 -212 112 -421 334 -421 132 0 235 83 266 213 l6
27 -85 0 c-125 0 -165 26 -165 105 0 27 8 44 29 66 l29 29 172 0 172 0 29 -29
c26 -26 29 -36 29 -94 0 -77 -29 -196 -66 -268 -34 -67 -120 -158 -182 -192
-159 -86 -384 -73 -535 31 -155 108 -242 273 -241 457 1 156 49 270 159 380
135 135 308 188 488 150z m950 1 c18 -7 39 -22 48 -32 9 -11 94 -224 189 -474
186 -494 188 -501 135 -547 -36 -31 -98 -31 -129 0 -13 13 -38 62 -56 110
l-33 87 -197 0 -198 0 -36 -94 c-41 -104 -62 -126 -121 -126 -49 0 -95 45 -95
92 0 34 326 899 355 945 16 23 65 52 93 53 7 0 27 -6 45 -14z m900 0 c18 -7
40 -22 50 -33 12 -14 192 -588 198 -633 0 -3 40 134 89 304 96 330 103 347
170 367 45 14 100 -6 126 -46 18 -28 184 -870 184 -936 0 -42 -35 -84 -78 -92
-42 -8 -91 17 -106 55 -7 18 -35 149 -61 290 -27 142 -51 256 -53 253 -2 -2
-40 -127 -83 -277 -70 -245 -81 -276 -109 -300 -43 -39 -107 -39 -151 0 -27
25 -40 58 -114 307 -60 203 -85 273 -89 255 -3 -14 -26 -136 -50 -272 -25
-136 -50 -257 -56 -268 -18 -33 -70 -51 -113 -39 -43 12 -67 46 -67 96 1 70
157 902 175 929 16 24 65 53 93 54 7 0 27 -6 45 -14z m1561 -15 c14 -13 28
-36 31 -52 8 -37 -18 -93 -51 -108 -15 -7 -84 -11 -174 -11 l-150 0 0 -125 0
-125 141 0 c77 0 149 -5 160 -10 24 -13 49 -61 49 -94 0 -14 -13 -40 -29 -58
l-29 -33 -146 -3 -146 -3 0 -120 0 -119 145 0 c164 0 193 -8 221 -62 13 -26
14 -38 5 -69 -20 -66 -32 -69 -284 -69 -223 0 -224 0 -250 24 -14 13 -29 35
-32 48 -3 12 -4 233 -3 489 3 451 4 468 23 489 11 12 29 26 40 31 11 4 118 7
237 6 213 -2 217 -2 242 -26z m-3110 -1377 c236 -61 406 -282 406 -527 0 -146
-55 -275 -164 -383 -103 -103 -245 -164 -381 -164 -134 0 -278 62 -381 165
-199 198 -217 490 -45 718 41 56 135 131 201 160 105 48 252 60 364 31z m647
6 c28 -16 37 -37 154 -375 59 -170 110 -313 114 -317 3 -4 55 140 115 320 119
361 130 382 202 382 48 0 94 -45 94 -92 0 -35 -286 -907 -311 -945 -7 -13 -31
-30 -52 -38 -45 -18 -103 -7 -132 25 -22 25 -335 923 -335 963 0 42 48 87 95
87 20 0 45 -5 56 -10z m1414 -13 c17 -14 28 -36 32 -63 5 -36 1 -46 -25 -75
l-30 -34 -156 -3 -156 -3 0 -120 0 -119 131 0 c76 0 139 -5 152 -11 63 -32 77
-111 28 -160 l-29 -29 -141 0 -141 0 0 -125 0 -125 154 0 c146 0 156 -1 181
-23 17 -14 28 -36 32 -63 5 -36 1 -46 -25 -75 l-30 -34 -213 -3 c-148 -2 -221
0 -241 9 -60 25 -58 9 -58 540 l0 487 31 26 31 26 223 0 c218 0 225 -1 250
-23z m733 -16 c116 -63 177 -163 177 -291 0 -60 -5 -86 -26 -130 -33 -70 -98
-133 -171 -168 l-58 -27 124 -142 c68 -78 127 -151 131 -162 19 -60 -31 -126
-95 -126 -48 0 -47 0 -231 208 l-149 168 0 -146 c0 -164 -8 -193 -62 -221 -26
-13 -38 -14 -69 -5 -71 21 -69 4 -69 541 l0 482 30 30 30 30 188 -4 187 -3 63
-34z"/>
<path d="M1971 4137 c-29 -78 -56 -148 -58 -154 -4 -10 23 -13 117 -13 67 0
120 4 118 9 -1 4 -28 74 -58 155 -30 80 -57 146 -60 146 -3 0 -29 -64 -59
-143z"/>
<path d="M1160 3028 c-38 -14 -74 -41 -117 -83 -53 -53 -64 -71 -83 -134 -39
-128 -9 -253 83 -345 54 -54 103 -80 181 -96 146 -30 301 48 372 187 26 51 29
68 29 148 0 76 -4 99 -26 146 -33 70 -91 130 -161 165 -74 38 -198 44 -278 12z"/>
<path d="M3920 2920 l0 -130 83 0 c96 0 140 17 175 70 41 61 15 137 -60 176
-17 9 -59 14 -113 14 l-85 0 0 -130z"/>
</g>
</svg>
